<svg xmlns="http://www.w3.org/2000/svg" viewBox="0 0 512 512">
  <!-- Background -->
  <rect x="64" y="64" width="384" height="384" rx="96" ry="96" fill="#f43f5e"/>
  <!-- Bag body -->
  <path d="M164 224c0-11 9-20 20-20h144c11 0 20 9 20 20l20 168c0 22-18 40-40 40H184c-22 0-40-18-40-40l20-168z" fill="#fff"/>
  <!-- Bag handle -->
  <path d="M192 208v-8c0-36 29-64 64-64s64 28 64 64v8h-32v-8c0-18-14-32-32-32s-32 14-32 32v8h-32z" fill="#fff"/>
  <!-- Heart -->
  <path d="M256 362c-23-16-74-55-74-92 0-20 16-36 36-36 14 0 26 7 33 18 7-11 19-18 33-18 20 0 36 16 36 36 0 37-51 76-74 92z" fill="#f43f5e"/>
</svg>

